<svg width="1200" height="630" viewBox="0 0 1200 630" fill="none" xmlns="http://www.w3.org/2000/svg">
  <rect width="1200" height="630" fill="url(#background)"/>
  
  <!-- Background Pattern -->
  <defs>
    <pattern id="dots" x="0" y="0" width="40" height="40" patternUnits="userSpaceOnUse">
      <circle cx="20" cy="20" r="2" fill="rgba(255,255,255,0.1)"/>
    </pattern>
    <linearGradient id="background" x1="0" y1="0" x2="1200" y2="630" gradientUnits="userSpaceOnUse">
      <stop stop-color="#3B82F6"/>
      <stop offset="0.5" stop-color="#8B5CF6"/>
      <stop offset="1" stop-color="#06B6D4"/>
    </linearGradient>
  </defs>
  
  <rect width="1200" height="630" fill="url(#dots)"/>
  
  <!-- Logo -->
  <g transform="translate(100, 200)">
    <rect width="80" height="80" rx="16" fill="white" opacity="0.2"/>
    <rect width="80" height="80" rx="16" fill="white" opacity="0.9"/>
    <path d="M20 30V50H25V40H30V50H35V30H30V35H25V30H20Z" fill="#3B82F6"/>
    <path d="M40 30V50H55V45H45V40H52V35H45V33H55V30H40Z" fill="#3B82F6"/>
    <circle cx="60" cy="40" r="4" fill="#8B5CF6"/>
  </g>
  
  <!-- Text -->
  <text x="220" y="250" font-family="Inter, system-ui, sans-serif" font-size="48" font-weight="700" fill="white">
    EduAI Nexus
  </text>
  <text x="220" y="290" font-family="Inter, system-ui, sans-serif" font-size="24" font-weight="400" fill="rgba(255,255,255,0.9)">
    Next-Generation Education Platform
  </text>
  
  <!-- Features -->
  <g transform="translate(220, 320)">
    <text y="30" font-family="Inter, system-ui, sans-serif" font-size="18" font-weight="500" fill="rgba(255,255,255,0.8)">
      • AI-Powered Personalized Teaching
    </text>
    <text y="60" font-family="Inter, system-ui, sans-serif" font-size="18" font-weight="500" fill="rgba(255,255,255,0.8)">
      • Intelligent Governance and Analytics
    </text>
    <text y="90" font-family="Inter, system-ui, sans-serif" font-size="18" font-weight="500" fill="rgba(255,255,255,0.8)">
      • Streamlined Administration
    </text>
  </g>
  
  <!-- Decorative Elements -->
  <circle cx="900" cy="150" r="60" fill="rgba(255,255,255,0.1)"/>
  <circle cx="1000" cy="300" r="40" fill="rgba(255,255,255,0.1)"/>
  <circle cx="950" cy="450" r="80" fill="rgba(255,255,255,0.05)"/>
</svg>